<mxfile host="app.diagrams.net" modified="2023-11-27T07:34:44.388Z" agent="Mozilla/5.0 (Macintosh; Intel Mac OS X 10_15_7) AppleWebKit/537.36 (KHTML, like Gecko) Chrome/119.0.0.0 Safari/537.36" etag="gwHsQIGEQIrGiUNM9-ob" version="22.1.4" type="github">
  <diagram id="C5RBs43oDa-KdzZeNtuy" name="Page-1">
    <mxGraphModel dx="954" dy="642" grid="1" gridSize="10" guides="1" tooltips="1" connect="1" arrows="1" fold="1" page="1" pageScale="1" pageWidth="827" pageHeight="1169" math="0" shadow="0">
      <root>
        <mxCell id="WIyWlLk6GJQsqaUBKTNV-0" />
        <mxCell id="WIyWlLk6GJQsqaUBKTNV-1" parent="WIyWlLk6GJQsqaUBKTNV-0" />
        <mxCell id="LxWhxHG-cs0hJQb_IGxT-12" value="" style="edgeStyle=orthogonalEdgeStyle;rounded=0;orthogonalLoop=1;jettySize=auto;html=1;" edge="1" parent="WIyWlLk6GJQsqaUBKTNV-1" source="WIyWlLk6GJQsqaUBKTNV-3" target="LxWhxHG-cs0hJQb_IGxT-0">
          <mxGeometry relative="1" as="geometry" />
        </mxCell>
        <mxCell id="WIyWlLk6GJQsqaUBKTNV-3" value="用户登录" style="rounded=1;whiteSpace=wrap;html=1;fontSize=12;glass=0;strokeWidth=1;shadow=0;" parent="WIyWlLk6GJQsqaUBKTNV-1" vertex="1">
          <mxGeometry x="320" y="50" width="120" height="40" as="geometry" />
        </mxCell>
        <mxCell id="LxWhxHG-cs0hJQb_IGxT-14" value="" style="edgeStyle=orthogonalEdgeStyle;rounded=0;orthogonalLoop=1;jettySize=auto;html=1;" edge="1" parent="WIyWlLk6GJQsqaUBKTNV-1" source="WIyWlLk6GJQsqaUBKTNV-7" target="LxWhxHG-cs0hJQb_IGxT-2">
          <mxGeometry relative="1" as="geometry" />
        </mxCell>
        <mxCell id="WIyWlLk6GJQsqaUBKTNV-7" value="生成新的access-token和refresh-token" style="rounded=1;whiteSpace=wrap;html=1;fontSize=12;glass=0;strokeWidth=1;shadow=0;" parent="WIyWlLk6GJQsqaUBKTNV-1" vertex="1">
          <mxGeometry x="520" y="140" width="120" height="40" as="geometry" />
        </mxCell>
        <mxCell id="LxWhxHG-cs0hJQb_IGxT-13" value="" style="edgeStyle=orthogonalEdgeStyle;rounded=0;orthogonalLoop=1;jettySize=auto;html=1;" edge="1" parent="WIyWlLk6GJQsqaUBKTNV-1" source="LxWhxHG-cs0hJQb_IGxT-0" target="WIyWlLk6GJQsqaUBKTNV-7">
          <mxGeometry relative="1" as="geometry" />
        </mxCell>
        <mxCell id="LxWhxHG-cs0hJQb_IGxT-28" value="通过" style="edgeLabel;html=1;align=center;verticalAlign=middle;resizable=0;points=[];" vertex="1" connectable="0" parent="LxWhxHG-cs0hJQb_IGxT-13">
          <mxGeometry x="-0.3" relative="1" as="geometry">
            <mxPoint y="-20" as="offset" />
          </mxGeometry>
        </mxCell>
        <mxCell id="LxWhxHG-cs0hJQb_IGxT-30" value="" style="edgeStyle=orthogonalEdgeStyle;rounded=0;orthogonalLoop=1;jettySize=auto;html=1;" edge="1" parent="WIyWlLk6GJQsqaUBKTNV-1" source="LxWhxHG-cs0hJQb_IGxT-0" target="LxWhxHG-cs0hJQb_IGxT-29">
          <mxGeometry relative="1" as="geometry" />
        </mxCell>
        <mxCell id="LxWhxHG-cs0hJQb_IGxT-31" value="不通过" style="edgeLabel;html=1;align=center;verticalAlign=middle;resizable=0;points=[];" vertex="1" connectable="0" parent="LxWhxHG-cs0hJQb_IGxT-30">
          <mxGeometry x="0.08" relative="1" as="geometry">
            <mxPoint y="-20" as="offset" />
          </mxGeometry>
        </mxCell>
        <mxCell id="LxWhxHG-cs0hJQb_IGxT-0" value="服务器校验登陆用户名密码" style="rounded=1;whiteSpace=wrap;html=1;fontSize=12;glass=0;strokeWidth=1;shadow=0;" vertex="1" parent="WIyWlLk6GJQsqaUBKTNV-1">
          <mxGeometry x="320" y="140" width="120" height="40" as="geometry" />
        </mxCell>
        <mxCell id="LxWhxHG-cs0hJQb_IGxT-15" value="" style="edgeStyle=orthogonalEdgeStyle;rounded=0;orthogonalLoop=1;jettySize=auto;html=1;" edge="1" parent="WIyWlLk6GJQsqaUBKTNV-1" source="LxWhxHG-cs0hJQb_IGxT-2" target="LxWhxHG-cs0hJQb_IGxT-3">
          <mxGeometry relative="1" as="geometry" />
        </mxCell>
        <mxCell id="LxWhxHG-cs0hJQb_IGxT-2" value="客户端保存到本地&lt;br&gt;localStorage" style="rounded=1;whiteSpace=wrap;html=1;fontSize=12;glass=0;strokeWidth=1;shadow=0;" vertex="1" parent="WIyWlLk6GJQsqaUBKTNV-1">
          <mxGeometry x="520" y="230" width="120" height="40" as="geometry" />
        </mxCell>
        <mxCell id="LxWhxHG-cs0hJQb_IGxT-16" value="" style="edgeStyle=orthogonalEdgeStyle;rounded=0;orthogonalLoop=1;jettySize=auto;html=1;" edge="1" parent="WIyWlLk6GJQsqaUBKTNV-1" source="LxWhxHG-cs0hJQb_IGxT-3" target="LxWhxHG-cs0hJQb_IGxT-5">
          <mxGeometry relative="1" as="geometry" />
        </mxCell>
        <mxCell id="LxWhxHG-cs0hJQb_IGxT-22" value="发送access-token" style="edgeLabel;html=1;align=center;verticalAlign=middle;resizable=0;points=[];" vertex="1" connectable="0" parent="LxWhxHG-cs0hJQb_IGxT-16">
          <mxGeometry x="-0.25" y="-1" relative="1" as="geometry">
            <mxPoint x="51" y="5" as="offset" />
          </mxGeometry>
        </mxCell>
        <mxCell id="LxWhxHG-cs0hJQb_IGxT-3" value="数据请求获取access-token" style="rounded=1;whiteSpace=wrap;html=1;fontSize=12;glass=0;strokeWidth=1;shadow=0;" vertex="1" parent="WIyWlLk6GJQsqaUBKTNV-1">
          <mxGeometry x="520" y="320" width="120" height="40" as="geometry" />
        </mxCell>
        <mxCell id="LxWhxHG-cs0hJQb_IGxT-17" value="" style="edgeStyle=orthogonalEdgeStyle;rounded=0;orthogonalLoop=1;jettySize=auto;html=1;" edge="1" parent="WIyWlLk6GJQsqaUBKTNV-1" source="LxWhxHG-cs0hJQb_IGxT-5" target="LxWhxHG-cs0hJQb_IGxT-6">
          <mxGeometry relative="1" as="geometry" />
        </mxCell>
        <mxCell id="LxWhxHG-cs0hJQb_IGxT-23" value="YES" style="edgeLabel;html=1;align=center;verticalAlign=middle;resizable=0;points=[];" vertex="1" connectable="0" parent="LxWhxHG-cs0hJQb_IGxT-17">
          <mxGeometry x="-0.4" y="-2" relative="1" as="geometry">
            <mxPoint x="22" as="offset" />
          </mxGeometry>
        </mxCell>
        <mxCell id="LxWhxHG-cs0hJQb_IGxT-21" value="" style="edgeStyle=orthogonalEdgeStyle;rounded=0;orthogonalLoop=1;jettySize=auto;html=1;" edge="1" parent="WIyWlLk6GJQsqaUBKTNV-1" source="LxWhxHG-cs0hJQb_IGxT-5" target="LxWhxHG-cs0hJQb_IGxT-9">
          <mxGeometry relative="1" as="geometry" />
        </mxCell>
        <mxCell id="LxWhxHG-cs0hJQb_IGxT-24" value="NO" style="edgeLabel;html=1;align=center;verticalAlign=middle;resizable=0;points=[];" vertex="1" connectable="0" parent="LxWhxHG-cs0hJQb_IGxT-21">
          <mxGeometry x="-0.5778" relative="1" as="geometry">
            <mxPoint x="-21" y="-10" as="offset" />
          </mxGeometry>
        </mxCell>
        <mxCell id="LxWhxHG-cs0hJQb_IGxT-5" value="access_token过期?" style="rhombus;whiteSpace=wrap;html=1;shadow=0;fontFamily=Helvetica;fontSize=12;align=center;strokeWidth=1;spacing=6;spacingTop=-4;" vertex="1" parent="WIyWlLk6GJQsqaUBKTNV-1">
          <mxGeometry x="530" y="400" width="100" height="80" as="geometry" />
        </mxCell>
        <mxCell id="LxWhxHG-cs0hJQb_IGxT-18" value="" style="edgeStyle=orthogonalEdgeStyle;rounded=0;orthogonalLoop=1;jettySize=auto;html=1;" edge="1" parent="WIyWlLk6GJQsqaUBKTNV-1" source="LxWhxHG-cs0hJQb_IGxT-6" target="LxWhxHG-cs0hJQb_IGxT-7">
          <mxGeometry relative="1" as="geometry" />
        </mxCell>
        <mxCell id="LxWhxHG-cs0hJQb_IGxT-6" value="后端返回access-token过期标识" style="rounded=1;whiteSpace=wrap;html=1;fontSize=12;glass=0;strokeWidth=1;shadow=0;" vertex="1" parent="WIyWlLk6GJQsqaUBKTNV-1">
          <mxGeometry x="520" y="520" width="120" height="40" as="geometry" />
        </mxCell>
        <mxCell id="LxWhxHG-cs0hJQb_IGxT-19" value="发送refresh-token" style="edgeStyle=orthogonalEdgeStyle;rounded=0;orthogonalLoop=1;jettySize=auto;html=1;" edge="1" parent="WIyWlLk6GJQsqaUBKTNV-1" source="LxWhxHG-cs0hJQb_IGxT-7" target="LxWhxHG-cs0hJQb_IGxT-8">
          <mxGeometry x="0.3333" y="50" relative="1" as="geometry">
            <mxPoint as="offset" />
          </mxGeometry>
        </mxCell>
        <mxCell id="LxWhxHG-cs0hJQb_IGxT-7" value="客户端使用&lt;br&gt;refresh-token&lt;br&gt;生成新的access-token和reresh-token&lt;br&gt;" style="rounded=1;whiteSpace=wrap;html=1;fontSize=12;glass=0;strokeWidth=1;shadow=0;" vertex="1" parent="WIyWlLk6GJQsqaUBKTNV-1">
          <mxGeometry x="500" y="610" width="160" height="85" as="geometry" />
        </mxCell>
        <mxCell id="LxWhxHG-cs0hJQb_IGxT-20" value="" style="edgeStyle=orthogonalEdgeStyle;rounded=0;orthogonalLoop=1;jettySize=auto;html=1;" edge="1" parent="WIyWlLk6GJQsqaUBKTNV-1" source="LxWhxHG-cs0hJQb_IGxT-8" target="LxWhxHG-cs0hJQb_IGxT-10">
          <mxGeometry relative="1" as="geometry" />
        </mxCell>
        <mxCell id="LxWhxHG-cs0hJQb_IGxT-25" value="YES" style="edgeLabel;html=1;align=center;verticalAlign=middle;resizable=0;points=[];" vertex="1" connectable="0" parent="LxWhxHG-cs0hJQb_IGxT-20">
          <mxGeometry x="-0.2" y="-2" relative="1" as="geometry">
            <mxPoint x="-8" y="-18" as="offset" />
          </mxGeometry>
        </mxCell>
        <mxCell id="LxWhxHG-cs0hJQb_IGxT-26" style="edgeStyle=orthogonalEdgeStyle;rounded=0;orthogonalLoop=1;jettySize=auto;html=1;entryX=1;entryY=0.5;entryDx=0;entryDy=0;" edge="1" parent="WIyWlLk6GJQsqaUBKTNV-1" source="LxWhxHG-cs0hJQb_IGxT-8" target="WIyWlLk6GJQsqaUBKTNV-7">
          <mxGeometry relative="1" as="geometry">
            <Array as="points">
              <mxPoint x="700" y="770" />
              <mxPoint x="700" y="160" />
            </Array>
          </mxGeometry>
        </mxCell>
        <mxCell id="LxWhxHG-cs0hJQb_IGxT-27" value="NO" style="edgeLabel;html=1;align=center;verticalAlign=middle;resizable=0;points=[];" vertex="1" connectable="0" parent="LxWhxHG-cs0hJQb_IGxT-26">
          <mxGeometry x="-0.1473" y="1" relative="1" as="geometry">
            <mxPoint x="21" y="-85" as="offset" />
          </mxGeometry>
        </mxCell>
        <mxCell id="LxWhxHG-cs0hJQb_IGxT-8" value="refresh-token过期?" style="rhombus;whiteSpace=wrap;html=1;shadow=0;fontFamily=Helvetica;fontSize=12;align=center;strokeWidth=1;spacing=6;spacingTop=-4;" vertex="1" parent="WIyWlLk6GJQsqaUBKTNV-1">
          <mxGeometry x="530" y="730" width="100" height="80" as="geometry" />
        </mxCell>
        <mxCell id="LxWhxHG-cs0hJQb_IGxT-9" value="返回客户需要的数据" style="rounded=1;whiteSpace=wrap;html=1;fontSize=12;glass=0;strokeWidth=1;shadow=0;" vertex="1" parent="WIyWlLk6GJQsqaUBKTNV-1">
          <mxGeometry x="320" y="420" width="120" height="40" as="geometry" />
        </mxCell>
        <mxCell id="LxWhxHG-cs0hJQb_IGxT-11" style="edgeStyle=orthogonalEdgeStyle;rounded=0;orthogonalLoop=1;jettySize=auto;html=1;entryX=0;entryY=0.5;entryDx=0;entryDy=0;" edge="1" parent="WIyWlLk6GJQsqaUBKTNV-1" source="LxWhxHG-cs0hJQb_IGxT-10" target="WIyWlLk6GJQsqaUBKTNV-3">
          <mxGeometry relative="1" as="geometry">
            <Array as="points">
              <mxPoint x="120" y="770" />
              <mxPoint x="120" y="70" />
            </Array>
          </mxGeometry>
        </mxCell>
        <mxCell id="LxWhxHG-cs0hJQb_IGxT-10" value="提示用户必须重新登录" style="rounded=1;whiteSpace=wrap;html=1;fontSize=12;glass=0;strokeWidth=1;shadow=0;" vertex="1" parent="WIyWlLk6GJQsqaUBKTNV-1">
          <mxGeometry x="330" y="750" width="120" height="40" as="geometry" />
        </mxCell>
        <mxCell id="LxWhxHG-cs0hJQb_IGxT-29" value="提示用户名和密码错误" style="rounded=1;whiteSpace=wrap;html=1;fontSize=12;glass=0;strokeWidth=1;shadow=0;" vertex="1" parent="WIyWlLk6GJQsqaUBKTNV-1">
          <mxGeometry x="150" y="140" width="120" height="40" as="geometry" />
        </mxCell>
      </root>
    </mxGraphModel>
  </diagram>
</mxfile>
